<svg width="196" height="196" viewBox="0 0 196 196" fill="none" id="svg-53826646_31490">
<rect width="196" height="196" rx="36.7112" fill="#FFFDF8"></rect>
<path d="M92.9375 53.4062L94.1875 53.5156L95.4531 53.625C96.2736 53.6929 97.102 53.7472 97.9375 53.7969L100.5 53.9531C101.684 54.0235 103.134 54.4563 104.734 55.0938L107.062 56.0156L106.516 57.3906L106.422 57.8906L106.062 59.8594L105.969 59.8438L105.766 59.8125L105.578 59.7344L103.25 58.8125C101.745 58.2129 100.787 57.9685 100.266 57.9375L98.9844 57.8594L97.7031 57.7969C96.8366 57.7454 95.9774 57.6799 95.125 57.6094L93.8594 57.5L92.6094 57.4062C91.8408 57.3426 91.0676 57.3104 90.2969 57.3281L89.0312 57.3594L87.7812 57.3906C86.9825 57.4089 86.1737 57.4466 85.375 57.5156L84.125 57.625L82.8594 57.7344C82.0425 57.805 81.2172 57.8863 80.3906 57.9844L77.8281 58.2969C77.1964 58.3727 76.5899 58.5401 76.0156 58.8125L74.8594 59.3594L73.7031 59.9219C72.9185 60.294 72.1306 60.6504 71.3438 61L70.1719 61.5156L69.0156 62.0312C68.3443 62.3295 67.705 62.6869 67.0938 63.0938L66.0312 63.7969L64.9844 64.5C64.3674 64.9106 63.7775 65.3606 63.2344 65.8594L62.2969 66.7188L61.375 67.5781C60.7513 68.1514 60.122 68.7303 59.5 69.2969L58.5625 70.1406L57.6406 70.9844C57.0063 71.5622 56.3523 72.1328 55.6875 72.7031L54.7188 73.5469L53.7344 74.375C53.2833 74.762 52.9391 75.2236 52.6719 75.75L52.0781 76.8906L51.5 78.0312C51.1263 78.7685 50.7766 79.5123 50.4375 80.25L49.9062 81.4062L49.375 82.5469C48.9821 83.4019 48.5226 84.2299 48 85.0312L47.2969 86.1094L46.5938 87.2031C46.2648 87.7081 46.0483 88.2485 45.9375 88.8281L45.6875 90.0781L45.4531 91.3438C45.2897 92.1978 45.1105 93.0463 44.9219 93.8906L44.6406 95.1406L44.375 96.3906C44.233 97.0288 44.1754 97.6716 44.2188 98.3281L44.2969 99.6094L44.3906 100.875C44.4559 101.857 44.426 102.848 44.2969 103.828L44.125 105.094L43.9531 106.375C43.8786 106.941 43.9268 107.488 44.0938 108.031L44.4688 109.266L44.8438 110.484C45.1385 111.444 45.3274 112.435 45.4062 113.438L45.5156 114.719L45.6094 116C45.653 116.554 45.8114 117.067 46.0938 117.547L47.4062 119.766C47.8876 120.584 48.3119 121.432 48.6719 122.297L49.1562 123.469L49.6406 124.625C49.9265 125.312 50.2568 125.984 50.6406 126.625L51.9531 128.812C52.3117 129.41 52.738 129.964 53.2188 130.469L54.0938 131.391L54.9688 132.297C55.5373 132.894 56.1073 133.488 56.6875 134.062L57.5938 134.953L58.4844 135.844C59.048 136.402 59.6346 136.948 60.2344 137.469L61.1875 138.281L62.1406 139.109C62.7463 139.635 63.3602 140.16 64 140.656L65 141.422L66.0156 142.203C66.5155 142.591 67.058 142.894 67.6562 143.109L68.8594 143.547L70.0625 143.969C70.9835 144.299 71.8737 144.716 72.7188 145.219L73.8125 145.875L74.9219 146.531C75.5262 146.891 76.1602 147.178 76.8281 147.391L79.2656 148.172C79.9738 148.397 80.7012 148.566 81.4375 148.672L82.7031 148.844L83.9844 149.031C84.7114 149.135 85.4398 149.167 86.1719 149.141L88.7344 149.047C89.5038 149.019 90.2638 148.948 91.0156 148.828L92.2812 148.625L93.5312 148.438C94.4101 148.297 95.2893 148.175 96.1719 148.094L97.4375 147.984L98.6875 147.859C99.5011 147.784 100.33 147.701 101.156 147.594L102.422 147.422L103.703 147.266C104.383 147.177 105.039 147.006 105.672 146.75L108.047 145.781C108.771 145.488 109.483 145.164 110.172 144.797L111.312 144.188L112.438 143.578C113.074 143.239 113.678 142.849 114.234 142.391L116.203 140.766C116.874 140.213 117.542 139.657 118.219 139.125L120.219 137.562C120.813 137.096 121.379 136.589 121.906 136.047L122.781 135.141L123.672 134.234C124.229 133.662 124.764 133.065 125.281 132.453L126.109 131.484L126.922 130.516C127.428 129.917 127.911 129.288 128.359 128.641L129.078 127.594L129.812 126.547C130.22 125.959 130.564 125.33 130.844 124.672L131.844 122.328C132.165 121.574 132.464 120.811 132.75 120.047L133.203 118.844L133.641 117.656C133.904 116.952 134.121 116.234 134.281 115.5L134.547 114.266L134.828 113.016C134.938 112.512 135.049 112.044 135.156 111.609L134.641 111.812L135.734 108.047L135.766 107.938L137.609 108.469L136.969 106.719L137.625 106.484L138.094 106.531L138.188 106.547C139.249 106.672 139.712 107.484 139.844 107.828C139.97 108.158 139.966 108.447 139.969 108.547C139.974 108.785 139.94 109.004 139.922 109.109C139.879 109.361 139.804 109.668 139.719 109.984L139.469 110.891L139.234 111.812C139.08 112.383 138.911 113.07 138.734 113.875L138.453 115.109L138.188 116.359C137.986 117.278 137.721 118.181 137.391 119.062L136.938 120.25L136.5 121.438C136.193 122.259 135.86 123.08 135.516 123.891L134.516 126.234C134.129 127.143 133.656 128.017 133.094 128.828L132.375 129.875L131.641 130.922C131.121 131.672 130.571 132.399 129.984 133.094L129.156 134.062L128.344 135.031C127.769 135.712 127.167 136.377 126.547 137.016L125.656 137.938L124.766 138.844C124.115 139.513 123.421 140.143 122.688 140.719L120.688 142.281C120.038 142.791 119.394 143.313 118.75 143.844L117.766 144.656L116.766 145.469C116.006 146.094 115.196 146.646 114.328 147.109L113.188 147.719L112.062 148.312C111.247 148.748 110.405 149.137 109.547 149.484L107.172 150.453C106.222 150.837 105.237 151.102 104.219 151.234L102.938 151.391L101.656 151.562C100.787 151.675 99.9215 151.765 99.0625 151.844L97.7969 151.969L96.5469 152.078C95.7526 152.151 94.9484 152.248 94.1562 152.375L91.6562 152.781C90.7395 152.928 89.8086 153.013 88.875 153.047L86.3125 153.141C85.342 153.176 84.3686 153.122 83.4062 152.984L82.1406 152.812L80.875 152.625C79.9202 152.488 78.9813 152.276 78.0625 151.984L76.8438 151.594L75.6094 151.203C74.6524 150.898 73.7393 150.483 72.875 149.969L71.7656 149.312L70.6719 148.656C70.0467 148.285 69.3952 147.977 68.7188 147.734L67.5156 147.312L66.3125 146.875C65.3158 146.517 64.3983 146.008 63.5625 145.359L62.5625 144.594L61.5469 143.812C60.8513 143.273 60.1756 142.714 59.5156 142.141L57.6094 140.484C56.9443 139.907 56.2971 139.306 55.6719 138.688L54.7656 137.797L53.875 136.906C53.2659 136.303 52.6586 135.689 52.0625 135.062L50.3125 133.219C49.6286 132.5 49.0255 131.711 48.5156 130.859L47.875 129.766L47.2188 128.688C46.7353 127.88 46.314 127.038 45.9531 126.172L45.4531 125L44.9688 123.828C44.6808 123.137 44.3428 122.46 43.9531 121.797L43.2969 120.688L42.6562 119.562C42.0677 118.56 41.7161 117.471 41.625 116.312L41.5156 115.031L41.4219 113.75C41.3659 113.039 41.2396 112.334 41.0312 111.656L40.6562 110.438L40.2656 109.203C39.9313 108.113 39.8363 106.99 39.9844 105.859L40.3281 103.297C40.4225 102.578 40.4382 101.856 40.3906 101.141L40.3125 99.875L40.2344 98.5938C40.1656 97.5561 40.2427 96.5291 40.4688 95.5156L40.75 94.2656L41.0156 93.0312C41.1962 92.223 41.3748 91.3963 41.5312 90.5781L42 88.0781C42.2093 86.9837 42.6247 85.9517 43.2344 85.0156L43.9531 83.9375L44.6562 82.8438C45.0729 82.2042 45.4417 81.5458 45.75 80.875L46.2656 79.7344L46.7969 78.5938C47.1581 77.8077 47.5406 77.0177 47.9375 76.2344L48.5156 75.0781L49.0938 73.9375C49.5991 72.941 50.2919 72.0719 51.1406 71.3438L52.1094 70.5156L53.0781 69.6719C53.714 69.1264 54.3483 68.5822 54.9531 68.0312L55.875 67.1875L56.8125 66.3281C57.4263 65.769 58.0407 65.2064 58.6562 64.6406L60.5312 62.9219C61.2287 62.2811 61.9753 61.6978 62.7656 61.1719L63.8125 60.4688L64.875 59.7656C65.6741 59.2338 66.5132 58.7648 67.3906 58.375L68.5469 57.8594L69.7188 57.3438C70.4754 57.0075 71.229 56.6551 71.9844 56.2969L73.1562 55.75L74.3125 55.2031C75.2791 54.745 76.297 54.4548 77.3594 54.3281L78.6406 54.1719L79.9062 54.0156C80.7769 53.9122 81.6535 53.8245 82.5156 53.75L83.7656 53.6406L85.0312 53.5312C85.9138 53.455 86.8041 53.4109 87.6875 53.3906L88.9375 53.3594L90.2031 53.3281C91.1146 53.3072 92.0288 53.331 92.9375 53.4062ZM119.719 62.5781C121.2 63.4534 122.417 64.3025 123.203 65.125L124.078 66.0469L124.969 66.9844C125.555 67.597 126.144 68.2059 126.734 68.8125L127.625 69.7188L128.516 70.6406C129.231 71.3762 129.842 72.1977 130.344 73.0938L130.969 74.2188L131.594 75.3281C131.987 76.0308 132.405 76.7218 132.844 77.3906L134.25 79.5156C134.766 80.3017 135.219 81.133 135.625 81.9844L136.188 83.1406L136.734 84.2812C137.197 85.2511 137.484 86.2886 137.609 87.3594L137.922 89.9219C138.013 90.7013 138.14 91.4619 138.312 92.2031L138.594 93.4375L138.875 94.6562L139.109 95.5938L139.203 95.7188L139.406 96L139.516 96.3281L139.531 96.4219L137.625 97L137.344 97.0781L135.984 98.0938L135.812 97.8594L135.766 97.7812L135.719 97.7188L135.609 97.5469C135.467 97.3138 135.385 97.0748 135.359 97C135.318 96.878 135.287 96.742 135.25 96.6094C135.175 96.3374 135.082 95.9821 134.984 95.5625L134.703 94.3438L134.422 93.1094C134.215 92.217 134.046 91.3016 133.938 90.375L133.797 89.0938L133.641 87.8125C133.566 87.1784 133.395 86.5825 133.125 86.0156L132.578 84.8594L132.016 83.7031C131.687 83.0155 131.322 82.352 130.906 81.7188L129.5 79.5938C129.007 78.8438 128.549 78.0678 128.109 77.2812L127.484 76.1719L126.859 75.0469C126.529 74.4559 126.127 73.922 125.656 73.4375L123.875 71.5938C123.277 70.9793 122.671 70.3705 122.078 69.75L121.188 68.8125L120.312 67.8906C119.919 67.4789 119.092 66.8618 117.688 66.0312L115.516 64.75L115.328 64.6406L115.172 64.4844L115.094 64.4219L116.469 62.9531L116.75 62.6406L117.562 61.2969L119.719 62.5781Z" fill="#282828"></path>
<path d="M110.781 125.094C111.838 124.771 112.958 125.366 113.281 126.422L114.016 128.797C114.489 130.344 114.887 131.3 115.188 131.797L116.5 133.953C116.938 134.675 117.277 135.266 117.5 135.688L117.797 136.234L118.078 136.797C118.193 137.014 118.369 137.34 118.453 137.703C118.492 137.871 118.558 138.258 118.453 138.719C118.32 139.304 117.903 139.942 117.141 140.219L116.984 140.266L116.688 140.375C115.652 140.749 114.504 140.221 114.125 139.188C113.964 138.742 113.983 138.275 114.125 137.859L113.969 137.547C113.802 137.232 113.505 136.736 113.078 136.031L111.766 133.875C111.198 132.938 110.683 131.59 110.188 129.969L109.453 127.578C109.136 126.526 109.732 125.419 110.781 125.094ZM116.109 114.375C117.098 113.885 118.305 114.293 118.797 115.281L118.812 115.328L120.219 117.719C121.172 119.347 121.895 120.529 122.406 121.281L123.234 122.5L124.062 123.703C124.713 124.659 125.234 125.692 125.609 126.781L126.078 128.156L126.562 129.547C126.726 130.02 126.848 130.437 126.938 130.766C126.982 130.927 127.032 131.098 127.062 131.266C127.08 131.366 127.138 131.716 127.078 132.109L127.047 132.344L127.031 132.484L126.984 132.625L126.938 132.734C126.858 133.388 126.497 133.99 125.859 134.297C124.865 134.773 123.681 134.353 123.203 133.359L123.156 133.281L122.812 132.578L123.047 131.828L123.062 131.766C123.004 131.559 122.922 131.253 122.781 130.844L122.297 129.469L121.828 128.078C121.569 127.326 121.202 126.617 120.75 125.953L119.922 124.75L119.094 123.531C118.504 122.664 117.732 121.385 116.766 119.734L115.312 117.266L115.281 117.219L115.203 117.062C114.714 116.074 115.122 114.866 116.109 114.375ZM120.734 101.281C121.687 100.723 122.926 101.032 123.484 101.984L123.5 102.016L125.125 104.156C126.292 105.688 127.184 106.912 127.75 107.812L128.516 109.047L129.297 110.281C129.837 111.14 130.347 112.015 130.828 112.906L132.203 115.469C132.716 116.42 133.122 117.397 133.234 118.344L133.328 119.219V119.281L133.703 119.953L133.75 120.031C134.256 120.949 133.951 122.071 133.094 122.641L133.031 122.719L132.562 122.953C131.954 123.258 131.248 123.24 130.672 122.922C130.23 122.676 129.992 122.327 129.906 122.188C129.73 121.9 129.654 121.61 129.625 121.5C129.553 121.223 129.505 120.887 129.469 120.578L129.359 119.703L129.266 118.812C129.238 118.585 129.092 118.126 128.688 117.375L127.312 114.812C126.873 113.998 126.399 113.191 125.906 112.406L125.141 111.172L124.359 109.938C123.892 109.194 123.099 108.083 121.953 106.578L120.219 104.297L120.141 104.203L120.078 104.094L120.031 104.016C119.475 103.065 119.788 101.842 120.734 101.281ZM64.1719 84.125H64.1875L66.9219 84.9844C68.7439 85.559 70.1307 86.0284 71.0781 86.3594L72.4531 86.8281L73.8281 87.3125C74.9827 87.7158 76.0428 88.3242 76.9844 89.125L78.125 90.1094L79.2656 91.0781C79.778 91.5147 80.3629 91.8019 81.0312 91.9531L82.5 92.2812L83.9844 92.625C85.2481 92.9118 86.3997 93.4501 87.4062 94.25L88.5469 95.1719L89.7031 96.0781C90.5973 96.7888 91.3925 97.6045 92.0938 98.5156L93 99.6875L93.9062 100.875C94.1499 101.192 94.3368 101.378 94.4531 101.484L94.7344 101.547L95.7812 101.75L96.2188 101.828L96.5781 102.094L96.6719 102.141C97.5684 102.784 97.7676 104.04 97.125 104.938C96.6145 105.65 95.733 105.894 94.9375 105.656L94 105.484H93.9688L93.9219 105.469L93.3594 105.344C92.6863 105.193 92.1571 104.805 91.8125 104.5C91.4386 104.168 91.0773 103.758 90.7344 103.312L89.8281 102.125L88.9219 100.953C88.4168 100.297 87.855 99.7087 87.2188 99.2031L86.0625 98.2969L84.9219 97.3906C84.3979 96.9742 83.7912 96.6733 83.0938 96.5156L80.1562 95.8594C78.8608 95.5665 77.681 94.9849 76.6719 94.125L75.5312 93.1562L74.3906 92.1719C73.8144 91.6821 73.1908 91.3297 72.5156 91.0938L69.7656 90.125C68.878 89.8149 67.5303 89.3839 65.7188 88.8125L62.9844 87.9531L62.9062 87.9219L62.8125 87.875L62.7188 87.8438C61.7023 87.4131 61.2262 86.2357 61.6562 85.2188C62.0723 84.2369 63.1803 83.7687 64.1719 84.125ZM61.6875 73.125L61.9219 73.2031L64.5938 74.6875C66.2173 75.5907 67.2526 75.9364 67.8125 75.9844L70.8125 76.2344C72.1452 76.3479 73.3825 76.779 74.4844 77.5312L75.7031 78.375L76.9375 79.2188C77.6055 79.6747 78.3083 80.0269 79.0469 80.2812L81.7969 81.2188C82.795 81.562 83.7618 81.9797 84.7031 82.4531L86 83.1094L87.2969 83.75C88.1191 84.1638 88.9635 84.5565 89.8281 84.9219L91.1875 85.5L92.5469 86.0625C93.6024 86.5088 94.589 87.0919 95.5 87.7812L96.6562 88.6562L97.8281 89.5469C98.2428 89.8606 98.6127 90.1502 98.9062 90.4219L99.7656 91.5L99.9531 91.8594L100.016 91.9844L100.156 92.3438C100.621 92.9955 100.668 93.884 100.203 94.5938C99.5977 95.5173 98.3613 95.7771 97.4375 95.1719L97.3594 95.125L96.8438 94.7812L96.6094 94.2188L96.3125 93.5312L96.2656 93.4375C96.2463 93.4181 96.2214 93.3907 96.1875 93.3594C96.0306 93.2141 95.7828 93.0076 95.4219 92.7344L94.25 91.8438L93.0781 90.9688C92.4321 90.4799 91.7375 90.0683 90.9844 89.75L89.625 89.1875L88.2656 88.6094C87.3224 88.2107 86.4013 87.7816 85.5 87.3281L84.2031 86.6719L82.9062 86.0312C82.126 85.6387 81.3283 85.285 80.5 85L77.75 84.0625C76.6619 83.6883 75.6323 83.1724 74.6719 82.5156L73.4531 81.6719L72.2344 80.8438C71.7079 80.4837 71.1262 80.2743 70.4688 80.2188L68.9688 80.0938L67.4844 79.9688C66.0505 79.8477 64.4004 79.1575 62.6562 78.1875L60.125 76.7812L60.1406 76.7656C59.2297 76.3237 58.7712 75.2846 59.125 74.3125C59.5045 73.2775 60.651 72.7477 61.6875 73.125ZM75.3125 65.1719L75.375 65.2031L78 66.3125C79.7789 67.0674 81.2112 67.7842 82.1875 68.4531L83.3906 69.2812L84.6094 70.1094C85.2786 70.5674 85.9883 70.9319 86.7344 71.2031L88.0938 71.7031L89.4531 72.1875C90.5394 72.5824 91.5535 73.1291 92.4844 73.8125L93.6562 74.6719L94.8125 75.5312C95.401 75.9629 96.0749 76.2848 96.8281 76.5156L98.2656 76.9688L99.7031 77.4062C100.235 77.5693 100.731 77.7464 101.156 77.9531C101.351 78.048 101.586 78.1706 101.812 78.3281L102.453 78.9219L102.812 79.3594L102.844 79.375L102.859 79.4062L103.5 80.2188C104.049 80.8607 104.169 81.7889 103.703 82.5469C103.124 83.4872 101.894 83.7813 100.953 83.2031L100.859 83.1562L100.562 82.9688L100.344 82.6719L99.7344 81.9062L99.4531 81.5625L99.4062 81.5469C99.2333 81.4633 98.9494 81.3626 98.5312 81.2344L97.0938 80.7812L95.6562 80.3438C94.4926 79.9871 93.4175 79.4572 92.4531 78.75L90.1094 77.0312C89.4889 76.5765 88.8189 76.2173 88.0938 75.9531L86.7188 75.4531L85.3594 74.9688C84.2918 74.5805 83.2878 74.0531 82.3438 73.4062L81.125 72.5781L79.9219 71.75C79.2841 71.313 78.1533 70.7282 76.4375 70L73.8125 68.875H73.7812L73.6875 68.8281C72.6783 68.3796 72.2235 67.1968 72.6719 66.1875C73.1204 65.1783 74.3032 64.7235 75.3125 65.1719Z" fill="#282828"></path>
<path d="M125.078 91.0781C126.135 91.3961 126.739 92.5206 126.422 93.5781L126.391 93.6719L125.562 96.7812C125.008 98.8857 124.669 100.429 124.516 101.438L124.266 103.109L124 104.781C123.792 106.146 123.35 107.443 122.656 108.641L121.797 110.109L120.938 111.594C120.423 112.484 119.984 113.394 119.625 114.328L119.031 115.891L118.422 117.453C118.023 118.491 117.625 119.533 117.219 120.578L116.609 122.156L116 123.719C115.516 124.963 114.835 126.107 113.984 127.141L112.922 128.453L111.844 129.75C111.119 130.63 110.39 131.506 109.656 132.359L107.469 134.891C106.809 135.659 106.21 136.472 105.672 137.328L104.797 138.75L103.906 140.156C103.266 141.174 102.553 142.142 101.781 143.062L100.719 144.344L99.6406 145.609C98.9634 146.417 98.6038 146.977 98.4531 147.297L97.6719 148.953C97.5333 149.247 97.3617 149.575 97.1719 149.844C97.0966 149.95 96.8989 150.239 96.5625 150.469C96.3839 150.59 96.0256 150.793 95.5312 150.828C94.955 150.867 94.4075 150.664 94.0156 150.312L93.9062 150.203L93.6719 150L93.6406 149.953C92.8732 149.237 92.7747 148.038 93.4531 147.219L93.5156 147.141L94.9219 145.453C95.2977 144.705 95.8724 143.889 96.5781 143.047L97.6406 141.766L98.7188 140.5C99.3728 139.72 99.9731 138.894 100.516 138.031L101.406 136.609L102.297 135.203C102.941 134.179 103.648 133.2 104.438 132.281L105.531 131.016L106.609 129.75C107.324 128.918 108.043 128.077 108.75 127.219L110.906 124.594C111.486 123.888 111.937 123.11 112.266 122.266L113.484 119.141C113.89 118.098 114.29 117.051 114.688 116.016L115.297 114.453L115.891 112.906C116.328 111.767 116.863 110.65 117.484 109.578L118.328 108.109L119.188 106.625C119.63 105.859 119.915 105.052 120.047 104.188L120.312 102.516L120.562 100.828C120.749 99.6039 121.14 97.9008 121.703 95.7656L122.531 92.5938L122.547 92.5469L122.562 92.5156L122.578 92.4219C122.896 91.3647 124.021 90.7608 125.078 91.0781ZM115.719 64.0156C116.815 64.1365 117.604 65.1216 117.484 66.2188V66.3125L117.469 66.3594V66.3906L116.984 69.6562C116.667 71.7895 116.563 73.2778 116.609 74.2031L116.688 75.9062L116.781 77.5938C116.846 78.8644 116.769 80.1293 116.562 81.375L116.281 83.0312L116.016 84.6875C115.826 85.8338 115.597 86.9787 115.328 88.1094L114.547 91.3594C114.29 92.439 114.041 93.5262 113.797 94.6094L113.438 96.25L113.062 97.8906C112.788 99.1048 112.392 100.28 111.891 101.422L111.219 102.969L110.547 104.5C110.069 105.588 109.539 106.657 108.953 107.688L108.125 109.141L107.297 110.609C106.769 111.539 106.267 112.473 105.812 113.422L105.109 114.922L104.391 116.406C103.909 117.414 103.413 118.421 102.906 119.422L102.156 120.906L101.406 122.375C100.857 123.46 100.218 124.503 99.5 125.484L98.5156 126.828L97.5469 128.156C96.9601 128.958 96.4353 129.816 95.9844 130.719L94.4844 133.719C93.9805 134.727 93.4586 135.738 92.9375 136.75L92.1719 138.266L91.3906 139.781C90.8131 140.902 90.1298 141.95 89.3438 142.922L88.2812 144.234L87.2344 145.531C86.4985 146.44 85.7997 147.22 85.1562 147.828L84.3281 148.609L83.4844 149.406C83.199 149.676 82.9309 149.907 82.7188 150.078C82.6226 150.156 82.4686 150.274 82.2969 150.375C82.2191 150.421 82.0297 150.523 81.7812 150.594C81.6495 150.632 80.7426 150.895 79.9219 150.203L79.8438 150.141L79.4688 149.812L79.3906 149.625C78.8961 148.918 78.873 147.96 79.4375 147.25L79.5 147.172L81.6562 144.469L81.9844 145.297L82.4062 144.906C82.8763 144.462 83.4559 143.842 84.125 143.016L85.1719 141.719L86.2344 140.406C86.8475 139.648 87.3736 138.821 87.8281 137.938L88.6094 136.438L89.3906 134.922C89.9038 133.925 90.4102 132.93 90.9062 131.938L91.6562 130.438L92.4062 128.922C92.9559 127.822 93.5923 126.78 94.3125 125.797L95.2969 124.453L96.2812 123.125C96.871 122.32 97.3931 121.468 97.8438 120.578L99.3438 117.609C99.8351 116.639 100.314 115.665 100.781 114.688L101.5 113.188L102.203 111.703C102.699 110.666 103.238 109.637 103.812 108.625L105.469 105.719C105.987 104.807 106.451 103.855 106.875 102.891L107.562 101.359L108.234 99.8125C108.633 98.9042 108.939 97.9643 109.156 97L109.531 95.375L109.891 93.7344C110.138 92.6356 110.396 91.5327 110.656 90.4375L111.047 88.8125L111.438 87.1719C111.684 86.1326 111.888 85.0848 112.062 84.0312L112.344 82.375L112.609 80.7188C112.768 79.7594 112.831 78.7843 112.781 77.7969L112.688 76.1094L112.609 74.4062C112.543 73.0738 112.704 71.2644 113.031 69.0625L113.516 65.8125V65.7812C113.636 64.6846 114.622 63.8962 115.719 64.0156ZM102.516 79.5625C103.523 79.8305 104.109 80.8202 103.938 81.8281L103.953 81.8438L103.547 85.1406C103.266 87.3801 102.86 89.2361 102.266 90.5469L101.578 92.0938L100.875 93.625C100.47 94.5175 100.166 95.4403 99.9688 96.3906L99.625 98.0469L99.2969 99.6875C99.012 101.062 98.4465 102.333 97.625 103.484L96.625 104.875L95.6406 106.266C95.0676 107.069 94.5974 107.91 94.25 108.781L93.6406 110.312L93.0312 111.859C92.6148 112.904 92.1744 113.945 91.7188 114.984L90.375 118.047C89.8416 119.264 89.1243 120.384 88.2344 121.375L87.1094 122.625L86 123.875C85.3212 124.631 84.7023 125.425 84.1562 126.266L83.25 127.672L82.3438 129.062C81.7901 129.916 81.2819 130.824 80.8281 131.781L79.3594 134.875C78.7479 136.165 77.8978 137.288 76.8125 138.203L75.5156 139.297L74.2188 140.375C73.4674 141.009 73.0191 141.562 72.7656 142L71.5469 144.094C71.3318 144.465 71.0807 144.868 70.8125 145.172C70.6963 145.303 70.4261 145.584 70.0312 145.781C69.8138 145.889 69.4547 146.018 69 146C68.4931 145.979 68.0358 145.771 67.6875 145.453L67.5 145.297L67.3594 145.156L67.2969 145.062C67.2683 145.04 67.2152 145.039 67.1875 145.016C66.3545 144.294 66.2651 143.023 66.9844 142.188L67.0469 142.125L68.7031 140.203L68.9531 140.562L69.2969 140C69.8531 139.039 70.6666 138.15 71.6406 137.328L74.2344 135.141C74.8749 134.6 75.3803 133.951 75.75 133.172L76.4844 131.609L77.2188 130.062C77.7449 128.953 78.3328 127.895 78.9844 126.891L79.8906 125.484L80.7969 124.094C81.457 123.077 82.1997 122.112 83.0156 121.203L85.2656 118.703C85.8721 118.028 86.3571 117.278 86.7188 116.453L88.0625 113.391C88.5012 112.39 88.9121 111.379 89.3125 110.375L89.9219 108.844L90.5469 107.297C91.016 106.121 91.6248 105.005 92.375 103.953L93.375 102.547L94.375 101.156C94.8777 100.45 95.2055 99.6929 95.375 98.875L95.7188 97.2344L96.0625 95.5781C96.3197 94.3396 96.7104 93.1415 97.2344 91.9844L97.9375 90.4375L98.625 88.8906C98.9614 88.1471 99.3093 86.7858 99.5781 84.6406L99.9844 81.3438L100 81.2188L100.047 81.0781L100.062 80.9844C100.346 79.9174 101.448 79.279 102.516 79.5625Z" fill="#282828"></path>
<path d="M76.4688 93.0781L77 93.5L78.5625 94.75L78.5 94.8281L78.4062 94.9375L78.2969 95.0469L77.3281 95.9375C76.7641 96.4718 75.8567 97.5194 74.5781 99.1562C73.2752 100.824 71.959 102.482 70.625 104.125C69.3144 105.74 68.0253 107.379 66.7812 109.047C65.5139 110.745 64.2388 112.438 62.9375 114.109C61.6663 115.742 60.4355 117.408 59.25 119.109C57.9819 120.929 56.5661 122.64 55.0156 124.234C53.6037 125.686 52.3005 127.234 51.1094 128.859C50.3392 129.91 49.5912 130.978 48.8438 132.047C49.7507 131.086 50.6746 130.134 51.5625 129.156C53.0026 127.57 54.4863 126.021 56.0156 124.516C57.4805 123.074 58.8901 121.582 60.2344 120.031C61.63 118.421 63.0576 116.835 64.5156 115.281C65.9112 113.794 67.2401 112.235 68.4844 110.609C69.83 108.852 71.2999 107.192 72.8906 105.656C74.3887 104.21 75.8582 102.735 77.2969 101.234C78.7045 99.7663 80.7303 97.4616 83.375 94.2812L83.4062 94.2344L83.4219 94.2031L83.5 94.1406L84.9688 95.4844L86.4531 96.8281L82.8906 101.031C81.8475 102.227 80.9415 103.213 80.1875 104C78.7111 105.54 77.1935 107.063 75.6562 108.547C74.2127 109.941 72.8784 111.435 71.6562 113.031C70.3306 114.763 68.9253 116.43 67.4375 118.016C66.0143 119.532 64.6122 121.069 63.25 122.641C61.8355 124.273 60.3693 125.858 58.8281 127.375C57.351 128.829 55.9063 130.312 54.5156 131.844C53.0867 133.418 51.6335 134.97 50.1562 136.5C48.7079 138 47.2892 139.533 45.8906 141.078C44.3715 142.757 42.7082 144.193 40.9062 145.375C40.4516 145.673 39.9614 145.951 39.5 146.125C39.2718 146.211 38.9476 146.308 38.5781 146.328C38.2052 146.348 37.6048 146.291 37.0469 145.859C36.4619 145.405 36.2439 144.794 36.1875 144.359C36.1347 143.952 36.1951 143.586 36.25 143.344C36.3613 142.855 36.5924 142.344 36.8281 141.875C37.7667 140.007 38.9789 138.215 40.4688 136.516C41.8042 134.993 43.047 133.397 44.1875 131.719C45.3881 129.952 46.6148 128.204 47.875 126.484C49.1751 124.71 50.6015 123.036 52.1406 121.453C53.5414 120.013 54.8244 118.47 55.9688 116.828C57.1948 115.069 58.4663 113.346 59.7812 111.656C61.066 110.006 62.3269 108.333 63.5781 106.656C64.8537 104.947 66.1718 103.265 67.5156 101.609C68.8346 99.9845 70.1335 98.3367 71.4219 96.6875C72.7239 95.0207 73.8055 93.7561 74.6094 93L74.625 92.9844L75.5781 92.1094L76.4688 93.0781ZM132.953 23.4844C135.513 23.2569 137.862 23.9157 139.891 25.4688C141.885 26.9977 143.194 29.0405 143.797 31.5C144.408 33.9936 144.127 36.4504 142.984 38.7812C141.855 41.0819 140.142 42.845 137.875 44C136.074 44.9169 133.425 46.2373 129.953 47.9844C129.862 48.1294 129.804 48.2713 129.75 48.3438C129.618 48.5215 129.445 48.7305 129.25 48.9688C128.859 49.4469 128.319 50.0927 127.625 50.8906C126.192 52.539 124.652 54.0991 123.031 55.5781C121.57 56.9123 120.267 58.3936 119.109 60C117.831 61.7731 116.463 63.4702 115.016 65.0938C113.613 66.6676 112.205 68.2437 110.797 69.8125C109.381 71.3892 107.948 72.9527 106.5 74.5C105.051 76.048 102.891 78.3227 100.016 81.3125L100 81.2969L99.9844 81.3281L97.0156 78.6719L97.0781 78.5938L97.0938 78.5625L97.125 78.5469C99.9986 75.5587 102.148 73.2938 103.578 71.7656C105.009 70.2373 106.43 68.6979 107.828 67.1406C109.233 65.5761 110.632 64.007 112.031 62.4375C113.386 60.9173 114.661 59.3183 115.859 57.6562C117.179 55.826 118.678 54.1453 120.344 52.625C121.849 51.2506 123.263 49.7956 124.594 48.2656C125.124 47.6558 125.545 47.1455 125.875 46.75C125.472 46.2807 124.982 45.7 124.438 45C124.007 44.4468 123.283 43.7272 122.25 42.8125C120.268 45.3285 118.661 47.2918 117.375 48.625C115.93 50.1223 114.515 51.6612 113.141 53.2188C111.743 54.8032 110.33 56.3748 108.906 57.9375C107.505 59.4755 106.133 61.0473 104.797 62.6406C103.475 64.2169 102.206 65.8396 101 67.5156C99.7108 69.307 98.3044 71.0019 96.7812 72.5938C95.3201 74.1208 94.4843 75.0491 94.1719 75.4531L93.6562 76.125L93.625 76.1719L93.5781 76.2188L93.5156 76.2969L92 75L90.75 73.9219L90.4688 73.7188L90.9844 73.0469V73.0312C91.4475 72.4275 92.4519 71.3318 93.8906 69.8281C95.2828 68.3732 96.5707 66.8254 97.75 65.1875C99.0137 63.4316 100.349 61.7147 101.734 60.0625C103.103 58.4307 104.503 56.8252 105.938 55.25C107.35 53.6997 108.754 52.1344 110.141 50.5625C111.554 48.9605 113.014 47.3992 114.5 45.8594C115.886 44.4235 117.82 42.0835 120.344 38.8125L121.062 37.3906C121.501 35.9795 122.056 34.2586 122.719 32.25C123.478 29.9508 124.716 27.9735 126.438 26.3594C128.246 24.6662 130.451 23.7074 132.953 23.4844ZM133.297 27.4688C131.656 27.6166 130.303 28.2219 129.172 29.2812C127.961 30.4176 127.075 31.8196 126.516 33.5156C125.858 35.5087 125.304 37.1972 124.875 38.5781C124.767 38.9259 124.642 39.2345 124.547 39.5156C125.859 40.653 126.903 41.6589 127.594 42.5469C128.095 43.1915 128.521 43.6836 128.844 44.0625C131.97 42.4887 134.375 41.2885 136.047 40.4375C137.532 39.6818 138.635 38.5544 139.391 37.0156C140.132 35.5034 140.302 34.0087 139.922 32.4531C139.532 30.861 138.711 29.6205 137.453 28.6562C136.232 27.7209 134.879 27.3277 133.297 27.4688Z" fill="#282828"></path>
<path d="M94.2333 105.003L94.4665 105.699L94.5567 106.414L94.1068 107.166L92.5205 106.17L92.7794 108.071L92.6806 108.087L88.4835 108.669L88.5957 108.475C87.0779 108.72 85.5207 108.999 83.9248 109.323C81.7494 109.764 79.5389 110.017 77.3147 110.1C75.2932 110.175 73.2885 110.394 71.3067 110.747C69.2564 111.113 67.2114 111.516 65.1711 111.955C63.0258 112.416 60.8533 112.742 58.6706 112.936C56.6329 113.118 54.6052 113.385 52.5934 113.753C50.4957 114.137 48.3927 114.497 46.2842 114.803C45.6078 114.901 44.9273 114.971 44.2508 115.068C46.1558 115.037 48.0623 115.008 49.962 114.911C52.0055 114.805 54.0436 114.623 56.0731 114.335C58.2165 114.031 60.3766 113.805 62.5341 113.676C64.6352 113.551 66.7418 113.423 68.8431 113.301C70.9382 113.18 73.0356 113.048 75.129 112.906C77.1708 112.767 79.2065 112.539 81.2347 112.22C83.4491 111.871 86.6768 111.638 90.8457 111.507L91.1514 115.496L91.0631 115.5L91.0084 115.514L85.6011 115.778C84.0838 115.89 82.8293 116.018 81.8483 116.172C79.7057 116.509 77.5487 116.75 75.3905 116.897C73.285 117.04 71.1793 117.184 69.0721 117.306C66.9696 117.427 64.8538 117.545 62.7516 117.67C60.7059 117.792 58.6639 117.991 56.631 118.279C54.4829 118.583 52.3209 118.794 50.1573 118.905C48.0292 119.015 45.8974 119.091 43.763 119.119C41.7521 119.145 39.7477 119.318 37.7601 119.644C35.6099 119.997 33.4482 120.235 31.2802 120.37C29.1258 120.505 26.9664 120.567 24.8059 120.532C24.2191 120.523 23.6651 120.471 23.1724 120.38C22.7189 120.296 22.1044 120.141 21.5824 119.761C20.9501 119.298 20.4591 118.491 20.5642 117.487C20.6481 116.702 21.0837 116.114 21.3766 115.777C22.6524 114.317 24.6793 113.613 26.9188 113.294C29.0226 112.995 31.1345 112.726 33.2514 112.498C35.3254 112.274 37.3995 112.031 39.4642 111.74C41.5449 111.448 43.6238 111.14 45.7032 110.838C47.7616 110.539 49.8225 110.203 51.8705 109.828C54.0049 109.438 56.1589 109.141 58.3207 108.949C60.3393 108.769 62.3428 108.473 64.3274 108.047C66.4157 107.598 68.5174 107.184 70.6164 106.81C72.7785 106.425 74.9606 106.185 77.1635 106.103C79.1709 106.028 81.1627 105.789 83.1242 105.391C85.2245 104.965 87.2711 104.601 89.2546 104.306C90.2322 104.16 90.9986 104.063 91.5298 104.006C91.7826 103.979 92.0288 103.955 92.235 103.95C92.3238 103.948 92.5079 103.945 92.7006 103.971C92.7813 103.982 93.0053 104.011 93.261 104.121C93.3752 104.17 93.9097 104.418 94.2333 105.003ZM171.626 90.3886C173.867 91.6575 175.42 93.5544 176.203 95.9943C176.968 98.3861 176.894 100.801 175.989 103.162C175.082 105.529 173.504 107.41 171.318 108.755C169.067 110.139 166.579 110.597 163.973 110.11C161.856 109.714 158.845 109.03 154.948 108.106C150.978 108.774 147.879 109.192 145.692 109.289C143.614 109.381 141.526 109.522 139.463 109.715C137.377 109.911 135.284 110.122 133.199 110.343C131.112 110.563 129.025 110.786 126.938 111.014C124.874 111.239 123.403 111.461 122.49 111.663L121.046 111.999L120.937 112.026L120.716 112.037L120.426 109.264L120.158 108.093L121.592 107.769L121.602 107.757C122.737 107.504 124.384 107.273 126.49 107.042C128.585 106.813 130.687 106.58 132.783 106.359C134.884 106.136 136.989 105.927 139.091 105.729C141.22 105.529 143.363 105.377 145.507 105.283C147.252 105.206 149.78 104.876 153.138 104.334C153.144 103.902 153.122 103.252 152.985 102.34C152.831 101.317 152.717 99.9501 152.575 98.2559C149.409 98.7373 146.88 99.0646 145.006 99.1127C142.982 99.1643 140.966 99.3352 138.971 99.6512C136.873 99.9834 134.769 100.292 132.667 100.579C130.521 100.872 128.358 101.079 126.192 101.183C125.146 101.234 124.331 101.287 123.743 101.325C123.449 101.344 123.218 101.355 123.049 101.37C122.909 101.382 122.839 101.39 122.817 101.392L122.466 101.454L122.313 101.483L122.225 101.488L122.006 99.4963L121.867 98.2531L121.732 97.5186L122.105 97.4561L122.115 97.4445L122.137 97.4434C122.612 97.363 124.002 97.2844 126.019 97.1873C128.062 97.0885 130.095 96.8994 132.119 96.6235C134.193 96.3405 136.278 96.0383 138.347 95.7106C140.516 95.3671 142.7 95.1697 144.899 95.1136C146.852 95.0638 149.808 94.6972 153.829 94.0354L154.576 93.7002L154.586 93.6886C155.214 93.3945 156.417 92.7442 158.25 91.6953C160.251 90.5496 162.357 89.7304 164.546 89.2636C167.015 88.738 169.405 89.1318 171.626 90.3886ZM169.65 93.8701C168.254 93.0811 166.862 92.8671 165.38 93.1829C163.612 93.5599 161.902 94.2218 160.245 95.1707C158.575 96.1265 157.295 96.7834 156.482 97.1799C156.641 99.1889 156.782 100.707 156.938 101.748C157.087 102.742 157.136 103.67 157.116 104.483C160.387 105.248 162.91 105.844 164.71 106.18C166.347 106.485 167.819 106.209 169.216 105.351C170.677 104.453 171.663 103.253 172.247 101.73C172.832 100.202 172.886 98.7207 172.402 97.2089C171.931 95.7411 171.03 94.6513 169.65 93.8701Z" fill="#282828"></path>
</svg>